# xmcd
#
# Track frame offsets:
#	150
#	22730
#	35645
#	52042
#	73537
#	123520
#	138867
#	149317
#	167190
#	181925
#	201127
#	214385
#	266405
#	284792
#	320390
#	333137
#
# Disc length: 4620 seconds
#
# Revision: 0
# Processed by: cddbd v1.5.2PL0 Copyright (c) Steve Scherf et al.
# Submitted via: audiograbber 1.83.01
#
DISCID=f6120a10
DTITLE=Canned Heat - Let's Work Together - Best [Zounds]
DYEAR=1998
DGENRE=Blues
TTITLE0=On The Road Again
TTITLE1=Going Up The Country
TTITLE2=Time Was
TTITLE3=One Kind Favour
TTITLE4=Fried Hockey Boogie
TTITLE5=World In A Jug
TTITLE6=Bullfrog Blues
TTITLE7=Amphetamine Annie
TTITLE8=Dust My Broom
TTITLE9=That's All Right, Mama
TTITLE10=I'm Her Man
TTITLE11=Boogie Chillen No. 2 [featuring John Lee Hooker]
TTITLE12=Let's Make It [featuring John Lee Hooker]
TTITLE13=So Sad (The World's In A Tangle)
TTITLE14=Let's Work Together
TTITLE15=Future Blues
EXTD=
EXTT0=
EXTT1=
EXTT2=
EXTT3=
EXTT4=
EXTT5=
EXTT6=
EXTT7=
EXTT8=
EXTT9=
EXTT10=
EXTT11=
EXTT12=
EXTT13=
EXTT14=
EXTT15=
PLAYORDER=
